<?xml version="1.0" standalone="no"?>
<!DOCTYPE svg PUBLIC "-//W3C//DTD SVG 20010904//EN"
        "http://www.w3.org/TR/2001/REC-SVG-20010904/DTD/svg10.dtd">
<svg version="1.0" xmlns="http://www.w3.org/2000/svg" width="100pt" height="200pt"
     viewBox="0 0 900.000000 720.000000" preserveAspectRatio="xMidYMid meet">
    <g transform="translate(0.000000,720.000000) scale(0.100000,-0.100000)" fill="#cc0000" stroke="none">
        <path d="M4415 5203 c-296 -25 -522 -123 -711 -308 -133 -131 -233 -301 -292 -502 -55 -186 -66 -268 -67 -503 0 -232 8 -287 71 -477 85 -256 275 -581 509 -873 190 -236 545 -610 581 -610 40 0 458 444 625 665 52 68 222 314 232 336 4 8 21 37 38 64 131 216 250 543 264 725 4 47 9 103 11 124 6 52 -13 271 -32 371 -57 295 -159 502 -334 677 -141 140 -290 224 -480 272 -146 37 -286 50 -415 39z m-74 -340 c40 -82 42 -83 189 -83 l130 0 31 65 c21 46 36 65 49 65 10 0 21 -4 25 -9 3 -5 19 -13 36 -16 79 -18 238 -115 331 -204 102 -96 182 -246 239 -446 4 -16 11 -76 15 -132 7 -107 -5 -187 -47 -317 -58 -175 -195 -356 -341 -449 -155 -99 -264 -136 -428 -144 -127 -6 -285 8 -304 27 -6 6 -18 10 -29 10 -47 0 -272 136 -340 205 -51 51 -120 142 -144 188 -51 97 -73 147 -73 162 0 9 -5 26 -11 37 -15 28 -30 117 -36 213 -5 80 20 259 38 280 5 5 9 17 9 28 0 24 63 146 121 232 46 70 156 182 203 207 14 7 59 32 101 55 76 43 151 71 192 72 16 1 27 -11 44 -46z"/>
        <path d="M4380 4708 c-5 -13 -14 -48 -20 -78 -13 -75 -36 -182 -55 -260 -9 -36 -21 -94 -26 -130 -6 -36 -15 -69 -20 -74 -5 -6 -9 -20 -9 -32 0 -12 -6 -44 -14 -70 -8 -27 -19 -71 -25 -99 -7 -27 -18 -79 -27 -115 -28 -123 -43 -211 -38 -223 3 -7 28 -30 56 -52 28 -22 65 -53 82 -70 18 -16 54 -48 82 -70 27 -22 67 -56 89 -77 49 -47 76 -48 125 -5 20 17 84 70 141 117 57 47 121 102 142 122 36 35 38 40 32 80 -6 46 -38 198 -60 288 -7 30 -18 78 -24 105 -13 66 -49 220 -62 269 -6 21 -14 60 -19 85 -5 25 -17 80 -28 121 -11 41 -23 95 -27 120 -4 25 -12 51 -17 58 -7 8 -48 12 -139 12 -125 0 -130 -1 -139 -22z"/>
    </g>
</svg>