<svg version="1.0"
     xmlns="http://www.w3.org/2000/svg" width="50.000000pt" height="35.000000pt" viewBox="0 0 300.000000 240.000000" preserveAspectRatio="none">
    <g transform="translate(1.000000,240.000000) scale(0.100000,-0.100000)" fill="white" stroke="none">
        <path d="M1393 1725 c-67 -19 -117 -51 -171 -109 -76 -83 -108 -192 -100 -348
6 -106 25 -167 90 -274 52 -87 158 -221 236 -297 l59 -58 92 97 c221 233 317
439 292 624 -6 41 -17 98 -26 126 -29 96 -122 196 -216 230 -63 23 -192 27
-256 9z m187 -37 c0 -6 13 -8 33 -4 24 5 28 3 17 -5 -12 -9 -11 -10 7 -6 13 3
21 0 20 -6 -1 -6 5 -11 13 -12 24 0 61 -25 55 -36 -4 -5 1 -9 9 -9 9 0 16 -4
16 -10 0 -5 6 -10 14 -10 7 0 16 -9 19 -20 3 -11 3 -20 1 -20 -3 0 -40 31 -84
72 -10 9 -21 14 -23 11 -3 -2 -17 3 -31 12 -28 19 -76 27 -76 13 0 -5 -4 -6
-10 -3 -5 3 -10 -1 -10 -9 0 -12 -10 -16 -40 -16 -22 0 -40 5 -40 11 0 5 6 7
13 3 6 -4 9 -4 5 0 -3 4 -8 6 -11 4 -3 -1 -15 6 -27 17 -16 14 -24 16 -27 8
-2 -7 -11 -9 -19 -6 -8 3 -14 0 -14 -6 0 -6 -6 -11 -14 -11 -8 0 -22 -7 -31
-16 -18 -19 -43 -5 -30 16 5 9 9 9 14 1 5 -8 13 -6 27 4 19 15 19 15 -1 10
-11 -3 -6 1 10 9 17 8 41 15 55 16 14 0 30 4 37 8 16 10 123 2 123 -10z m-124
-62 c5 -21 11 -24 55 -23 43 1 50 4 55 24 4 13 8 23 11 23 20 0 120 -61 144
-87 57 -66 74 -110 74 -203 0 -95 -21 -152 -79 -211 -138 -142 -399 -97 -476
82 -65 153 -10 317 131 388 34 17 66 31 70 31 5 0 11 -11 15 -24z m-150 -7 c3
-6 -1 -18 -10 -27 -15 -15 -18 -15 -26 -2 -5 9 -5 19 2 27 13 16 25 17 34 2z
m-46 -48 c0 -4 -8 -19 -19 -32 -10 -13 -21 -34 -25 -46 -4 -13 -12 -23 -17
-23 -6 0 -7 -9 -4 -21 6 -19 5 -20 -8 -8 -13 12 -13 16 -1 30 8 9 14 21 12 26
-5 15 35 83 49 83 7 0 13 -4 13 -9z m596 -248 c4 -74 -9 -157 -27 -178 -5 -5
-9 -19 -9 -31 0 -13 -7 -29 -15 -38 -9 -8 -24 -33 -34 -56 -10 -22 -21 -37
-26 -32 -4 4 -6 0 -3 -8 3 -8 -2 -22 -11 -30 -9 -8 -29 -34 -44 -57 -15 -24
-32 -43 -37 -43 -6
0 -9 -3 -8 -7 3 -12 -64 -83 -73 -77 -5 3 -6 -3 -2 -13 3
-10 3 -15 -2 -11 -4 4 -16 -4 -27 -17 -11 -14 -25 -25 -32 -25 -24 0 -184 181
-178 201 1 6 -2 8 -7 4 -6 -3 -15 5 -22 17 -6 13 -21 33 -32 46 -11 12 -17 22
-12 22 4 0 1 8 -7 18 -25 27 -69 125 -64 139 3 7 2 13 -3 13 -19 0 -36 125
-25 188 6 39 26 43 24 5 -4 -49 0 -64 11 -57 8 5 10 -6 7 -34 -2 -22 0 -38 4
-36 5 3 8 0 8 -7 0 -7 3 -9 6 -6 4 3 20 -19 36 -51 30 -58 46 -81 35 -50 -4
12 -2 15 9 11 7 -3 14 -11 14 -18 0 -8 5 -17 12 -21 7 -5 8 -3 3 7 -6 11 -4
10 11 -1 21 -18 67 -34 135 -49 50 -11 130 4 174 33 13 9 31 16 40 16 8 0 15
4 15 8 0 5 11 14 25 20 28 13 78 101 85 152 3 19 10 34 16 33 12 -2 11 29 -1
67 -6 20 12 47 23 35 2 -2 6 -39 8 -82z" />
        <path d="M1466 1563 c-12 -44 -76 -328 -76 -341 0 -5 27 -33 60 -62 l60 -52
57 48 c32 27 60 50 62 51 4 3 -41 230 -64 318 -12 49 -13 50 -53 53 -32 2 -41
-1 -46 -15z m70 -33 c0 -8 -4 -21 -10 -28 -8 -11 -5 -13 10 -10 15 2 18 -2 16
-19 -2 -12 2 -24 8 -28 5 -3 10 -12 10 -18 0 -7 -4 -6 -10 3 -13 19 -13 5 0
-18 5 -9 12 -44 15 -76 5 -43 10 -55 17 -45 7 10 8 7 5 -13 -2 -17 0 -28 7
-28 6 -1 0 -10 -13 -20 -13 -11 -18 -20 -12 -20 7 0 9 -5 6 -11 -4 -5 -12 -8
-18 -6 -6 2 -19 -5 -29 -15 -10 -10 -27 -18 -37 -18 -18 0 -36 25 -32 44 1 5
-6 3 -15 -5 -10 -8 -15 -9 -11 -2 4 6 1 13 -5 15 -18 6 -13 99 7 137 8 17 15
41 15 54 0 13 7 38 16 55 8 18 13 36 9 41 -9 15 18 52 35 49 8 -2 15 -10 16
-18z" />
    </g>
</svg>
